# xmcd CD database file
#
# Track frame offsets:
#	150
#	14795
#	28943
#	41385
#	54575
#	69694
#	83913
#	98629
#	112871
#	126863
#	137340
#	152743
#	166583
#	178646
#	191017
#	205828
#	221042
#	236137
#	250542
#	268361
#
# Disc length: 3767 seconds
#
# Revision: 0
# Processed by: cddbd v1.5.2PL0 Copyright (c) Steve Scherf et al.
# Submitted via: CDex 1.70beta2
#
DISCID=190eb514
DTITLE=Fats Waller - Aint Misbehavin CD4 - Quadromania
DYEAR=2005
DGENRE=Jazz
TTITLE0=Bond Street (Waller)     
TTITLE1=Squeeze Me (Waller – Williams)
TTITLE2=The Darktown Strutters Ball (Brooks)
TTITLE3=I Can’t Give You Anything But Love, Baby (Fields – McHugh)
TTITLE4=At Twilight (Waller – Waller) 
TTITLE5=The Moon Is Low (Freed – Brown) 
TTITLE6=“Send Me“ Jackson (Friend – Reynolds)
TTITLE7=I’ll Never Smile Again (Lowe)     
TTITLE8=Rockin' Chair (Carmichael)
TTITLE9=Carolina Shout (Johnson)
TTITLE10=Honeysuckle Rose (Waller) 
TTITLE11=Chant Of The Groove (Hicks)
TTITLE12=Come And Get It (Waller-Kirkeby)
TTITLE13=Clarinet Marmalade (Shields-La Rocca)
TTITLE14=Winter Weather (Shapiro)
TTITLE15=Cash For You Trash (Waller-Kirkeby)
TTITLE16=The Jitterbug Waltz (Waller)
TTITLE17=By The Light Of The Silvery Moon (Madden-Edwards)
TTITLE18=Ain’t Misbehavin’ (Razaf-Waller-Brooks) 
TTITLE19=Really Fine (Hicks-Kirkeby)
EXTD=YEAR: 2005
EXTT0=
EXTT1=
EXTT2=
EXTT3=
EXTT4=
EXTT5=
EXTT6=
EXTT7=
EXTT8=
EXTT9=
EXTT10=
EXTT11=
EXTT12=
EXTT13=
EXTT14=
EXTT15=
EXTT16=
EXTT17=
EXTT18=
EXTT19=
PLAYORDER=
